<svg xmlns="http://www.w3.org/2000/svg"  viewBox="0 0 50 50" width="50px" height="50px"><path d="M 25 2 C 12.309288 2 2 12.309297 2 25 C 2 37.690703 12.309288 48 25 48 C 37.690712 48 48 37.690703 48 25 C 48 12.309297 37.690712 2 25 2 z M 25 4 C 36.609833 4 46 13.390175 46 25 C 46 36.609825 36.609833 46 25 46 C 13.390167 46 4 36.609825 4 25 C 4 13.390175 13.390167 4 25 4 z M 25 7 C 15.059 7 7 15.059 7 25 C 7 34.941 15.059 43 25 43 C 34.941 43 43 34.941 43 25 C 43 15.059 34.941 7 25 7 z M 26.820312 13.119141 L 26.736328 16.246094 C 26.736328 16.246094 34.539844 16.161531 35.214844 16.144531 C 35.214844 16.144531 35.264125 18.756359 35.078125 19.818359 C 35.078125 19.818359 17.263531 19.296578 14.769531 19.767578 L 14.685547 16.144531 L 22.960938 16.126953 L 22.775391 13.171875 L 26.820312 13.119141 z M 28.876953 20.15625 L 32.685547 21.302734 C 32.685547 21.302734 30.359813 29.696484 29.382812 31.146484 C 29.382812 31.146484 33.596078 31.482328 35.955078 31.111328 L 35.988281 34.71875 C 35.988281 34.71875 15.493359 34.517078 13.943359 34.955078 L 14.044922 31.146484 C 14.044922 31.146484 19.8595 31.567812 25.4375 31.382812 C 25.4375 31.382812 26.618953 29.34225 28.876953 20.15625 z M 20.669922 20.240234 C 20.669922 20.241234 23.078422 26.392813 23.482422 29.257812 L 19.84375 30.572266 C 19.84375 30.572266 18.73125 25.111828 17.28125 21.673828 L 20.669922 20.240234 z"/></svg>